<mxfile host="app.diagrams.net" modified="2024-01-17T18:48:11.103Z" agent="Mozilla/5.0 (Windows NT 10.0; Win64; x64) AppleWebKit/537.36 (KHTML, like Gecko) Chrome/119.0.0.0 Safari/537.36 OPR/105.0.0.0" version="22.1.21" etag="Gu5Zt2W5fUR61zuAALnv" type="github">
  <diagram name="Page-1" id="ecbrKntya6NLD0-ps1Tj">
    <mxGraphModel>
      <root>
        <mxCell id="0" />
        <mxCell id="1" parent="0" />
      </root>
    </mxGraphModel>
  </diagram>
</mxfile>
